<?xml version="1.0" standalone="no"?>
<!DOCTYPE svg PUBLIC "-//W3C//DTD SVG 20010904//EN"
 "http://www.w3.org/TR/2001/REC-SVG-20010904/DTD/svg10.dtd">
<svg version="1.0" xmlns="http://www.w3.org/2000/svg"
 width="700.000000pt" height="700.000000pt" viewBox="0 0 700.000000 700.000000"
 preserveAspectRatio="xMidYMid meet">
<metadata>
Created by potrace 1.11, written by Peter Selinger 2001-2013
</metadata>
<g transform="translate(0.000000,700.000000) scale(0.100000,-0.100000)"
fill="#000000" stroke="none">
<path d="M0 3500 l0 -3500 1750 0 1750 0 0 3500 0 3500 -1750 0 -1750 0 0
-3500z m2364 554 c14 -14 16 -69 16 -461 l0 -446 -127 -129 c-70 -70 -135
-130 -145 -133 -9 -4 -26 -1 -38 5 -19 10 -20 21 -21 153 -1 78 -4 205 -8 281
l-6 139 -307 -302 c-168 -165 -314 -301 -324 -301 -25 0 -234 209 -234 234 0
14 102 123 305 326 168 168 305 308 305 312 0 5 -127 8 -283 8 -207 0 -286 3
-295 12 -28 28 -11 55 121 186 l134 132 446 0 c392 0 447 -2 461 -16z"/>
<path d="M5141 6148 c-119 -58 -145 -214 -51 -308 94 -94 251 -67 309 52 79
165 -94 337 -258 256z"/>
<path d="M5195 3676 c-64 -29 -114 -106 -115 -177 0 -49 43 -129 85 -158 38
-26 104 -37 160 -27 71 14 145 107 145 186 0 70 -59 155 -123 179 -39 15 -116
13 -152 -3z"/>
<path d="M5165 1193 c-70 -37 -105 -95 -105 -173 0 -67 29 -123 82 -157 35
-24 52 -28 108 -28 56 0 73 4 108 28 95 62 111 202 33 291 -46 53 -162 73
-226 39z"/>
</g>
</svg>
