<?xml version="1.0" encoding="UTF-8" standalone="no"?>
<!-- Created with Inkscape (http://www.inkscape.org/) -->

<svg
   xmlns:dc="http://purl.org/dc/elements/1.1/"
   xmlns:cc="http://creativecommons.org/ns#"
   xmlns:rdf="http://www.w3.org/1999/02/22-rdf-syntax-ns#"
   xmlns:svg="http://www.w3.org/2000/svg"
   xmlns="http://www.w3.org/2000/svg"
   version="1.1"
   width="875"
   height="875"
   id="svg2">
  <defs
     id="defs4">
    <filter
       x="0"
       y="0"
       width="1"
       height="1"
       color-interpolation-filters="sRGB"
       id="filter3012">
      <feColorMatrix
         id="feColorMatrix3014"
         type="saturate"
         values="0"
         result="result1" />
      <feFlood
         id="feFlood3016"
         flood-color="rgb(0,78,94)"
         result="result2" />
      <feBlend
         in2="result1"
         mode="screen"
         result="result2"
         id="feBlend3018" />
      <feComposite
         in2="SourceGraphic"
         operator="in"
         in="result2"
         id="feComposite3020" />
    </filter>
    <clipPath
       id="ball">
      <circle
         cx="0"
         cy="0"
         r="100"
         id="circle3304"
         style="stroke-width:0" />
    </clipPath>
    <radialGradient
       cx="-19.999998"
       cy="-39.999996"
       r="160"
       fx="-19.999998"
       fy="-39.999996"
       id="shadow1"
       gradientUnits="userSpaceOnUse">
      <stop
         id="stop3307"
         style="stop-color:#ffffff;stop-opacity:1"
         offset="0" />
      <stop
         id="stop3309"
         style="stop-color:#ffffff;stop-opacity:1"
         offset="0.40000001" />
      <stop
         id="stop3311"
         style="stop-color:#eeeeee;stop-opacity:1"
         offset="0.80000001" />
    </radialGradient>
    <radialGradient
       cx="0"
       cy="0"
       r="100"
       fx="0"
       fy="0"
       id="shadow2"
       gradientUnits="userSpaceOnUse">
      <stop
         id="stop3314"
         style="stop-color:#ffffff;stop-opacity:0"
         offset="0" />
      <stop
         id="stop3316"
         style="stop-color:#ffffff;stop-opacity:0"
         offset="0.80000001" />
      <stop
         id="stop3318"
         style="stop-color:#000000;stop-opacity:0.30000001"
         offset="0.99000001" />
      <stop
         id="stop3320"
         style="stop-color:#000000;stop-opacity:1"
         offset="1" />
    </radialGradient>
    <g
       clip-path="url(#ball)"
       id="black_stuff"
       style="stroke-linejoin:round">
      <g
         id="g3323"
         style="fill:#000000">
        <path
           d="m 6,-32 q 20,4 40,13 11,-16 18,-28 -14,-21 -27,-29 -20,1 -36,8 3,17 5,36"
           id="path3325" />
        <path
           d="m -26,-2 q -19,-6 -36,-9 -12,16 -14,33 7,18 26,32 18,-7 33,-15 -6,-24 -9,-41"
           id="path3327" />
        <path
           d="m -95,22 q -7,-10 -7,-30 v 88 h 17 Q -95,45 -95,22"
           id="path3329" />
        <path
           d="M 55,24 Q 41,41 24,52 28,65 31,79 55,78 68,67 78,50 80,35 65,28 55,24"
           id="path3331" />
        <path
           d="M 0,120 -3,95 q -22,-2 -39,-13 -8,2 -18,-1"
           id="path3333" />
        <path
           d="m -90,-48 q 10,-4 22,-1 16,-22 33,-28 0,-23 -5,-23 h -60"
           id="path3335" />
        <path
           d="m 100,-55 -13,18 q 11,27 10,42 l 3,1"
           id="path3337" />
      </g>
      <g
         id="g3339"
         style="fill:none">
        <path
           d="m 6,-32 q -24,20 -32,30 m 72,-17 q 8,24 9,43 m 9,-71 q 13,3 23,10 M 37,-76 q 2,-14 -1,-24 M 1,-68 q -14,-9 -36,-9 m -27,66 q -5,-14 -6,-38 m -8,71 q -9,2 -19,0 m 45,32 q 1,16 8,28 m 25,-43 q 17,9 41,13 m 7,27 Q 20,92 -3,95 M 68,67 80,80 M 80,35 Q 90,25 97,5"
           id="path3341" />
      </g>
    </g>
    <filter
       x="0"
       y="0"
       width="1"
       height="1"
       color-interpolation-filters="sRGB"
       id="filter8530">
      <feFlood
         flood-color="rgb(128,128,128)"
         flood-opacity="0"
         result="result1"
         id="feFlood8532" />
      <feBlend
         in2="SourceGraphic"
         mode="normal"
         result="result2"
         id="feBlend8534" />
      <feComposite
         in2="SourceGraphic"
         operator="arithmetic"
         k1="0"
         k2="1"
         k3="0"
         k4="0"
         result="result3"
         id="feComposite8536" />
      <feComposite
         in2="SourceGraphic"
         operator="in"
         result="fbSourceGraphic"
         id="feComposite8538" />
      <feColorMatrix
         id="feColorMatrix8540"
         values="0 0 0 -1 0 0 0 0 -1 0 0 0 0 -1 0 0 0 0 1 0"
         in="fbSourceGraphic"
         result="fbSourceGraphicAlpha" />
      <feFlood
         in="fbSourceGraphic"
         flood-color="rgb(128,128,128)"
         flood-opacity="0"
         result="result1"
         id="feFlood8542" />
      <feBlend
         in2="fbSourceGraphic"
         mode="normal"
         result="result2"
         id="feBlend8544" />
      <feComposite
         in2="fbSourceGraphic"
         operator="arithmetic"
         k1="0"
         k2="1"
         k3="0"
         k4="0"
         result="result4"
         id="feComposite8546" />
      <feComposite
         in2="fbSourceGraphic"
         operator="in"
         id="feComposite8548" />
    </filter>
  </defs>
  <metadata
     id="metadata7">
    <rdf:RDF>
      <cc:Work
         rdf:about="">
        <dc:format>image/svg+xml</dc:format>
        <dc:type
           rdf:resource="http://purl.org/dc/dcmitype/StillImage" />
        <dc:title></dc:title>
      </cc:Work>
    </rdf:RDF>
  </metadata>
  <g
     transform="translate(0,-177.36218)"
     id="layer1">
    <rect
       width="875"
       height="875"
       x="0"
       y="177.36218"
       id="rect8712"
       style="fill:#ffffff;fill-opacity:1;stroke:#c80000;stroke-width:0;stroke-miterlimit:4;stroke-opacity:1;stroke-dasharray:none" />
    <rect
       width="437.5"
       height="875"
       ry="0"
       x="0"
       y="177.36218"
       id="rect2987"
       style="fill:#000000;fill-opacity:1;stroke:#c80000;stroke-width:0;stroke-miterlimit:4;stroke-opacity:1;stroke-dasharray:none" />
    <rect
       width="437.5"
       height="52.083332"
       x="437.5"
       y="437.19171"
       id="rect3757"
       style="fill:#000000;fill-opacity:1;stroke:#000000;stroke-width:0;stroke-miterlimit:4;stroke-opacity:1;stroke-dasharray:none" />
    <path
       d="m 186.66678,383.56898 105.35379,-0.11543 -0.0764,-105.15373 -29.27741,-29.13932 -0.35401,80.91199 -83.85075,-83.49324 -23.43408,23.39471 84.3571,84.03584 -82.0706,0.32207 29.35237,29.23775 z"
       id="path1316"
       style="font-size:12px;fill:#000000;fill-opacity:0;stroke:#ffffff;stroke-width:14.91706085;stroke-linejoin:round;stroke-miterlimit:4;stroke-opacity:1;stroke-dasharray:none" />
    <path
       d="m 184.19233,549.34096 107.46437,0.12149 -0.0778,107.25797 -29.86392,29.72221 -0.36118,-82.53149 -85.53056,85.16423 -23.90356,-23.86257 86.04705,-85.71779 -83.71472,-0.33418 29.94039,-29.82293 z"
       id="path1316-3"
       style="font-size:12px;fill:#ffffff;fill-opacity:1;stroke:#ffffff;stroke-width:12.17261314;stroke-linejoin:round;stroke-miterlimit:4;stroke-opacity:1;stroke-dasharray:none" />
    <rect
       width="437.5"
       height="52.083332"
       x="437.5"
       y="748.97656"
       id="rect3757-9"
       style="fill:#000000;fill-opacity:1;stroke:#c80000;stroke-width:0;stroke-miterlimit:4;stroke-opacity:1;stroke-dasharray:none" />
    <path
       d="m 185.9276,972.7046 107.46513,-0.1212 -0.0741,-107.2605 -29.86412,-29.7221 -0.36094,82.5321 -85.53112,-85.1655 -23.90373,23.8633 86.04762,85.7194 -83.71532,0.3298 29.94068,29.8237 z"
       id="path1316-7"
       style="font-size:12px;fill:#ffffff;fill-opacity:1;fill-rule:evenodd;stroke:#ffffff;stroke-width:12.1727438;stroke-linejoin:round;stroke-miterlimit:4;stroke-opacity:1;stroke-dasharray:none" />
    <path
       d="m -107.14285,50.42857 a 40,30.714285 0 1 1 -80,0 40,30.714285 0 1 1 80,0 z"
       transform="matrix(0.6076389,0,0,0.79134367,742.62155,265.49406)"
       id="path8674"
       style="fill:#000000;fill-opacity:1;stroke:#c80000;stroke-width:0;stroke-miterlimit:4;stroke-opacity:1;stroke-dasharray:none" />
    <path
       d="m -107.14285,50.42857 a 40,30.714285 0 1 1 -80,0 40,30.714285 0 1 1 80,0 z"
       transform="matrix(0.6076389,0,0,0.79134367,748.69782,574.95585)"
       id="path8674-0"
       style="fill:#000000;fill-opacity:1;stroke:#c80000;stroke-width:0;stroke-miterlimit:4;stroke-opacity:1;stroke-dasharray:none" />
    <path
       d="m -107.14285,50.42857 a 40,30.714285 0 1 1 -80,0 40,30.714285 0 1 1 80,0 z"
       transform="matrix(0.6076389,0,0,0.79134367,745.65969,884.8516)"
       id="path8674-0-9"
       style="fill:#000000;fill-opacity:1;stroke:#c80000;stroke-width:0;stroke-miterlimit:4;stroke-opacity:1;stroke-dasharray:none" />
  </g>
</svg>
